<svg xmlns="http://www.w3.org/2000/svg" viewBox="0 0 1200 300" width="1200" height="300">
  <rect width="1200" height="300" fill="white"/>
  <g fill="black" transform="translate(60,40)">
    <polygon points="0,0 60,0 115,180 55,180" />
    <polygon points="115,180 170,0 230,0 170,180" />
    <g transform="translate(260,0)">
      <rect x="0" y="0" width="220" height="180" rx="36" ry="36"/>
      <rect x="40" y="40" width="140" height="100" rx="20" ry="20" fill="white"/>
    </g>
    <g transform="translate(520,0)">
      <rect x="0" y="0" width="60" height="180"/>
      <polygon points="60,0 120,0 60,120 60,180 0,180 0,120"/>
      <rect x="120" y="0" width="60" height="180"/>
    </g>
    <g transform="translate(720,0)">
      <rect x="0" y="0" width="60" height="180"/>
    </g>
    <g transform="translate(820,0)">
      <polygon points="0,0 60,0 120,80 180,0 240,0 150,90 240,180 180,180 120,100 60,180 0,180 90,90" />
    </g>
    <g transform="translate(1080,0) scale(0.8333) translate(-240,0)">
      <polygon points="0,0 60,0 120,80 180,0 240,0 150,90 240,180 180,180 120,100 60,180 0,180 90,90" />
    </g>
  </g>
</svg>
